HIERARCHY
ROOT RootJoint
{
    OFFSET   0.000000   0.000000   0.000000
    CHANNELS 6 Xposition Yposition Zposition Xrotation Yrotation Zrotation
    JOINT pelvis_lowerback
    {
        OFFSET   0.000000   0.093605   0.000000
        CHANNELS 3 Xrotation Yrotation Zrotation
        JOINT lowerback_torso
        {
            OFFSET   0.000000   0.100000   0.000000
            CHANNELS 3 Xrotation Yrotation Zrotation
            JOINT torso_head
            {
                OFFSET   0.000000   0.282350   0.000000
                CHANNELS 3 Xrotation Yrotation Zrotation
                End Site
                {
                    OFFSET   0.000000   0.192650   0.000000
                }
            }
            JOINT rTorso_Clavicle
            {
                OFFSET  -0.001000   0.157500   0.000000
                CHANNELS 3 Xrotation Yrotation Zrotation
                JOINT rShoulder
                {
                    OFFSET  -0.117647   0.000000   0.000000
                    CHANNELS 3 Xrotation Yrotation Zrotation
                    JOINT rElbow
                    {
                        OFFSET  -0.245000   0.000000   0.000000
                        CHANNELS 3 Xrotation Yrotation Zrotation
                        JOINT rWrist
                        {
                            OFFSET  -0.240000   0.000000   0.000000
                            CHANNELS 3 Xrotation Yrotation Zrotation
                            End Site
                            {
                                OFFSET  -0.116353  -0.002500   0.000000
                            }
                        }
                    }
                }
            }
            JOINT lTorso_Clavicle
            {
                OFFSET   0.001000   0.157500   0.000000
                CHANNELS 3 Xrotation Yrotation Zrotation
                JOINT lShoulder
                {
                    OFFSET   0.117647   0.000000   0.000000
                    CHANNELS 3 Xrotation Yrotation Zrotation
                    JOINT lElbow
                    {
                        OFFSET   0.245000   0.000000   0.000000
                        CHANNELS 3 Xrotation Yrotation Zrotation
                        JOINT lWrist
                        {
                            OFFSET   0.240000   0.000000   0.000000
                            CHANNELS 3 Xrotation Yrotation Zrotation
                            End Site
                            {
                                OFFSET   0.116353  -0.002500   0.000000
                            }
                        }
                    }
                }
            }
        }
    }
    JOINT rHip
    {
        OFFSET  -0.100000  -0.051395   0.000000
        CHANNELS 3 Xrotation Yrotation Zrotation
        JOINT rKnee
        {
            OFFSET   0.000000  -0.410000   0.000000
            CHANNELS 3 Xrotation Yrotation Zrotation
            JOINT rAnkle
            {
                OFFSET   0.000000  -0.390000   0.000000
                CHANNELS 3 Xrotation Yrotation Zrotation
                JOINT rToeJoint
                {
                    OFFSET   0.000000  -0.050000   0.130000
                    CHANNELS 3 Xrotation Yrotation Zrotation
                    End Site
                    {
                        OFFSET  -0.010000   0.002000   0.060000
                    }
                }
            }
        }
    }
    JOINT lHip
    {
        OFFSET   0.100000  -0.051395   0.000000
        CHANNELS 3 Xrotation Yrotation Zrotation
        JOINT lKnee
        {
            OFFSET   0.000000  -0.410000   0.000000
            CHANNELS 3 Xrotation Yrotation Zrotation
            JOINT lAnkle
            {
                OFFSET   0.000000  -0.390000   0.000000
                CHANNELS 3 Xrotation Yrotation Zrotation
                JOINT lToeJoint
                {
                    OFFSET   0.000000  -0.050000   0.130000
                    CHANNELS 3 Xrotation Yrotation Zrotation
                    End Site
                    {
                        OFFSET   0.010000   0.002000   0.060000
                    }
                }
            }
        }
    }
}
MOTION
Frames: 10
Frame Time:   0.008333
 -2.376719   0.925631   3.975860   0.000000   0.000000   0.000000   0.000000   0.000000   0.000000   0.000000   0.000000   0.000000   0.000000   0.000000   0.000000   0.000000   0.000000   0.000000   0.000000   0.000000   0.000000   0.000000   0.000000   0.000000   0.000000   0.000000   0.000000   0.000000   0.000000   0.000000   0.000000   0.000000   0.000000   0.000000   0.000000   0.000000   0.000000   0.000000   0.000000   0.000000   0.000000   0.000000   0.000000   0.000000   0.000000   0.000000   0.000000   0.000000   0.000000   0.000000   0.000000   0.000000   0.000000   0.000000   0.000000   0.000000   0.000000   0.000000   0.000000   0.000000   0.000000   0.000000   0.000000
 -2.376107   0.925939   3.975235  -0.345836   0.566799   0.110261   0.211533  -0.143972  -0.136403   0.494551   0.087784   0.238455   0.055445   0.546385  -0.104763   0.466181  -0.871962  -0.174394   1.310690  -0.068907   2.133169   0.006568   0.347115  -0.006480   0.475909   0.276846  -2.199517  -0.466745  -0.133567  -0.263319   0.054596  -0.629595  -2.167107   0.040076  -2.068305  -0.000120   0.314529   1.173603   2.539372  -0.971927  -0.237141  -0.153551   2.885412   0.001150   0.008215  -2.654215  -0.159597   0.473992  -0.683010   0.002662  -0.001015  -0.070755  -0.302099  -0.276358   2.637927   0.003968   0.005986  -3.801023  -0.472680  -0.058553   0.404112   0.000736  -0.000723
 -2.375249   0.926415   3.974853  -0.841722   1.507608   0.231864   0.442468  -0.468765  -0.218407   1.106915  -0.046487   0.487603   0.175673   1.098178  -0.179260   0.926378  -1.813714   0.264639   2.618066  -0.185280   4.748716   0.014065   0.649298  -0.010711   1.019822   0.544896  -3.758311  -0.913232  -0.471420  -1.226916   0.060308  -1.442410  -4.759242   0.091267  -4.136226  -0.000220   0.628759   1.508228   4.293733  -2.134071  -0.460640  -0.319960   5.854070   0.003195   0.024777  -5.129185  -0.330470   0.901614  -1.397035   0.004850  -0.004178   0.348870  -0.601129  -0.644643   5.523517   0.011058   0.020288  -7.366080  -0.920889  -0.154625   0.606621   0.001141  -0.000224
 -2.374307   0.926658   3.974668  -1.333634   2.678916   0.350884   0.631013  -0.945613  -0.262143   1.688842  -0.358760   0.736382   0.297383   1.617355  -0.236573   1.367543  -2.744545   1.111872   3.916779  -0.290438   7.689532   0.020777   0.915028  -0.013113   1.549667   0.743747  -4.622787  -1.338389  -0.921281  -2.613785   0.016391  -2.314717  -7.542153   0.139841  -6.115429  -0.001062   0.942184   1.460053   5.238213  -3.523314  -0.659260  -0.477708   8.587554   0.006106   0.042342  -7.437570  -0.506706   1.289535  -2.051791   0.006450  -0.007846   1.130251  -0.881891  -1.027988   8.381278   0.019903   0.037046 -10.686440  -1.333419  -0.274827   0.806213   0.001561   0.000679
 -2.373356   0.926375   3.974627  -1.789755   3.987950   0.467202   0.779780  -1.533838  -0.284401   2.216188  -0.798572   0.980515   0.406372   2.102068  -0.285893   1.792482  -3.648649   2.209499   5.210910  -0.362774  10.854668   0.026139   1.152272  -0.014272   2.056935   0.892812  -4.970780  -1.744371  -1.429980  -4.237670  -0.073276  -3.199611 -10.384332   0.179877  -7.990221  -0.002002   1.248463   1.227601   5.600269  -5.128284  -0.835095  -0.635051  11.052674   0.009506   0.057268  -9.594461  -0.685804   1.642830  -2.663023   0.007660  -0.011329   2.203093  -1.152177  -1.388345  11.164161   0.029489   0.052719 -13.782061  -1.711180  -0.410630   0.996796   0.001933   0.001688
 -2.372436   0.925342   3.974694  -2.206120   5.372432   0.582319   0.897946  -2.200484  -0.294426   2.693234  -1.329093   1.217715   0.502658   2.554124  -0.331730   2.203630  -4.521941   3.446177   6.502391  -0.392275  14.171039   0.030024   1.365525  -0.014588   2.540243   1.006425  -4.969447  -2.133754  -1.965841  -5.975282  -0.203302  -4.071935 -13.202144   0.209405  -9.757468  -0.002518   1.543401   0.898360   5.578296  -6.919082  -0.989256  -0.803676  13.263308   0.012903   0.068276 -11.610090  -0.865734   1.965448  -3.232878   0.008559  -0.014259   3.516715  -1.418982  -1.705794  13.861759   0.039055   0.065622 -16.668951  -2.056231  -0.555917   1.177081   0.002240   0.002632
 -2.371571   0.923394   3.974839  -2.584406   6.784930   0.696968   0.993473  -2.919661  -0.296547   3.127830  -1.922735   1.447657   0.588668   2.975729  -0.376164   2.602928  -5.362940   4.745469   7.791646  -0.373415  17.586924   0.032523   1.557747  -0.014334   2.999620   1.091708  -4.745103  -2.509340  -2.509093  -7.744574  -0.368059  -4.917178 -15.942946   0.228587 -11.418951  -0.002369   1.825109   0.515108   5.317085  -8.862643  -1.121813  -0.990972  15.241089   0.015858   0.075183 -13.493362  -1.044697   2.260734  -3.761348   0.009194  -0.016456   5.027401  -1.686822  -1.971770  16.469528   0.048028   0.075002 -19.361479  -2.370936  -0.706131   1.347266   0.002485   0.003423
 -2.371177   0.919868   3.974196  -2.608965   7.684795   0.733403   1.003793  -3.143898  -0.220589   3.422955  -2.512217   1.508645   0.499848   3.144628  -0.391980   3.029196  -5.993279   5.670064   9.223757  -0.494539  20.862106   0.038658   1.888061  -0.016632   3.381688   1.302822  -3.496346  -2.799361  -2.857334  -8.613420  -0.479686  -5.899201 -18.797689   0.242332 -13.278659   0.002836   2.062514   0.090114   4.377744 -11.828458  -1.365926  -1.211064  18.452570   0.020520   0.075085 -15.043684  -1.512099   2.391492  -3.851526   0.007486  -0.013297   6.728023  -1.814936  -1.983040  17.175358   0.041224   0.064263 -21.580088  -2.718118  -1.056592   1.846870   0.003979   0.004773
 -2.371085   0.915000   3.973189  -2.597259   8.646656   0.755966   1.102125  -3.409075  -0.162891   3.721818  -3.112043   1.559637   0.410432   3.292216  -0.421778   3.433318  -6.583191   6.399471  10.567587  -0.550375  23.834402   0.041060   2.191295  -0.017905   3.747715   1.522379  -2.276244  -3.100738  -3.220491  -9.208854  -0.640581  -6.852750 -21.328799   0.242846 -15.041370   0.008477   2.309077  -0.486586   3.559531 -14.829621  -1.610926  -1.517255  21.523373   0.025644   0.074593 -16.475936  -1.962345   2.499345  -3.887670   0.006008  -0.010720   8.366327  -1.962303  -1.796606  17.602906   0.034083   0.054353 -23.666825  -3.028310  -1.396597   2.293911   0.004237   0.005865
 -2.371176   0.908926   3.972013  -2.584707   9.633247   0.783558   1.261517  -3.692085  -0.123121   4.043001  -3.708448   1.605904   0.338573   3.429367  -0.455807   3.816611  -7.143191   6.980731  11.825344  -0.556533  26.538182   0.041030   2.468875  -0.018331   4.090743   1.707525  -1.234490  -3.413396  -3.589281  -9.631214  -0.843096  -7.763174 -23.598973   0.235294 -16.700037   0.013481   2.553738  -1.119969   2.971731 -17.756523  -1.807920  -1.909627  24.356705   0.030543   0.073310 -17.812273  -2.386362   2.588676  -3.917543   0.004811  -0.008664   9.928203  -2.098276  -1.474552  17.963422   0.027864   0.046171 -25.619437  -3.302109  -1.722659   2.698738   0.003839   0.006718
